HIERARCHY
ROOT hip
{
  OFFSET 0.00112043 5.09927 -9.65472
  CHANNELS 6 Xposition Yposition Zposition Zrotation Xrotation Yrotation
  JOINT abdomen
  {
    OFFSET 0 -1.186 -1.5018
    CHANNELS 3 Zrotation Xrotation Yrotation
    JOINT abdomen2
    {
      OFFSET 0 9.964 0.2134
      CHANNELS 3 Zrotation Xrotation Yrotation
      JOINT chest
      {
        OFFSET 0 13.134 -3.2573
        CHANNELS 3 Zrotation Xrotation Yrotation
        JOINT neck
        {
          OFFSET 0 20.686 -1.6905
          CHANNELS 3 Zrotation Xrotation Yrotation
          JOINT head
          {
            OFFSET 0 7.238 -0.1237
            CHANNELS 3 Zrotation Xrotation Yrotation
            End Site
            {
              OFFSET 0 0 0
            }
          }
        }
        JOINT lCollar
        {
          OFFSET 1.7069 20.075 5.0056
          CHANNELS 3 Zrotation Xrotation Yrotation
          JOINT lShldr
          {
            OFFSET 13.6458 -0.047 -4.849
            CHANNELS 3 Zrotation Xrotation Yrotation
            JOINT lForeArm
            {
              OFFSET 28.3255 -0.9759 2.2888
              CHANNELS 3 Zrotation Xrotation Yrotation
              JOINT lHand
              {
                OFFSET 22.1583 -0.53 10.8316
                CHANNELS 3 Zrotation Xrotation Yrotation
                JOINT lThumb1
                {
                  OFFSET 0.786 0.112 2.5817
                  CHANNELS 3 Zrotation Xrotation Yrotation
                  JOINT lThumb2
                  {
                    OFFSET 0.3601 -0.878 4.2331
                    CHANNELS 3 Zrotation Xrotation Yrotation
                    JOINT lThumb2_End
                    {
                      OFFSET 1.8127 -1.216 2.2227
                      CHANNELS 3 Zrotation Xrotation Yrotation
                      End Site
                      {
                        OFFSET 0.0181 -0.0122 0.0222
                      }
                    }
                  }
                }
                JOINT lCarpal1
                {
                  OFFSET 0.9571 1.114 1.7695
                  CHANNELS 3 Zrotation Xrotation Yrotation
                  JOINT lIndex1
                  {
                    OFFSET 4.1246 0.487 4.1451
                    CHANNELS 3 Zrotation Xrotation Yrotation
                    JOINT lIndex2
                    {
                      OFFSET 3.4052 -1.454 2.7682
                      CHANNELS 3 Zrotation Xrotation Yrotation
                      JOINT lIndex2_End
                      {
                        OFFSET 1.4531 -1.795 1.2713
                        CHANNELS 3 Zrotation Xrotation Yrotation
                        End Site
                        {
                          OFFSET 0.0145 -0.0179 0.0127
                        }
                      }
                    }
                  }
                  JOINT lMid1
                  {
                    OFFSET 5.6954 0.21 2.1184
                    CHANNELS 3 Zrotation Xrotation Yrotation
                    JOINT lMid2
                    {
                      OFFSET 3.9766 -1.54 2.3863
                      CHANNELS 3 Zrotation Xrotation Yrotation
                      JOINT lMid2_End
                      {
                        OFFSET 1.4042 -1.926 1.125
                        CHANNELS 3 Zrotation Xrotation Yrotation
                        End Site
                        {
                          OFFSET 0.014 -0.0193 0.0113
                        }
                      }
                    }
                  }
                }
                JOINT lCarpal2
                {
                  OFFSET 2.0956 0.66 -0.3894
                  CHANNELS 3 Zrotation Xrotation Yrotation
                  JOINT lRing1
                  {
                    OFFSET 5.0395 -0.09 2.4971
                    CHANNELS 3 Zrotation Xrotation Yrotation
                    JOINT lRing2
                    {
                      OFFSET 3.7921 -1.552 1.4806
                      CHANNELS 3 Zrotation Xrotation Yrotation
                      JOINT lRing2_End
                      {
                        OFFSET 1.4655 -1.808 0.9609
                        CHANNELS 3 Zrotation Xrotation Yrotation
                        End Site
                        {
                          OFFSET 0.0147 -0.0181 0.0096
                        }
                      }
                    }
                  }
                  JOINT lPinky1
                  {
                    OFFSET 4.9141 -1.269 0.3591
                    CHANNELS 3 Zrotation Xrotation Yrotation
                    JOINT lPinky2
                    {
                      OFFSET 3.1477 -1.685 0.8462
                      CHANNELS 3 Zrotation Xrotation Yrotation
                      JOINT lPinky2_End
                      {
                        OFFSET 0.8055 -1.585 0.7955
                        CHANNELS 3 Zrotation Xrotation Yrotation
                        End Site
                        {
                          OFFSET 0.0081 -0.0158 0.008
                        }
                      }
                    }
                  }
                }
              }
            }
          }
        }
        JOINT rCollar
        {
          OFFSET -1.7069 20.075 5.0056
          CHANNELS 3 Zrotation Xrotation Yrotation
          JOINT rShldr
          {
            OFFSET -13.6458 -0.047 -4.849
            CHANNELS 3 Zrotation Xrotation Yrotation
            JOINT rForeArm
            {
              OFFSET -28.3255 -0.9759 2.2888
              CHANNELS 3 Zrotation Xrotation Yrotation
              JOINT rHand
              {
                OFFSET -22.1583 -0.53 10.8316
                CHANNELS 3 Zrotation Xrotation Yrotation
                JOINT rThumb1
                {
                  OFFSET -0.786 0.112 2.5817
                  CHANNELS 3 Zrotation Xrotation Yrotation
                  JOINT rThumb2
                  {
                    OFFSET -0.3601 -0.878 4.2331
                    CHANNELS 3 Zrotation Xrotation Yrotation
                    JOINT rThumb2_End
                    {
                      OFFSET -1.8127 -1.216 2.2227
                      CHANNELS 3 Zrotation Xrotation Yrotation
                      End Site
                      {
                        OFFSET -0.0181 -0.0122 0.0222
                      }
                    }
                  }
                }
                JOINT rCarpal1
                {
                  OFFSET -0.9571 1.114 1.7695
                  CHANNELS 3 Zrotation Xrotation Yrotation
                  JOINT rIndex1
                  {
                    OFFSET -4.1246 0.487 4.1451
                    CHANNELS 3 Zrotation Xrotation Yrotation
                    JOINT rIndex2
                    {
                      OFFSET -3.4052 -1.454 2.7682
                      CHANNELS 3 Zrotation Xrotation Yrotation
                      JOINT rIndex2_End
                      {
                        OFFSET -1.4531 -1.795 1.2713
                        CHANNELS 3 Zrotation Xrotation Yrotation
                        End Site
                        {
                          OFFSET -0.0145 -0.018 0.0127
                        }
                      }
                    }
                  }
                  JOINT rMid1
                  {
                    OFFSET -5.6954 0.21 2.1184
                    CHANNELS 3 Zrotation Xrotation Yrotation
                    JOINT rMid2
                    {
                      OFFSET -3.9766 -1.54 2.3863
                      CHANNELS 3 Zrotation Xrotation Yrotation
                      JOINT rMid2_End
                      {
                        OFFSET -1.4042 -1.926 1.125
                        CHANNELS 3 Zrotation Xrotation Yrotation
                        End Site
                        {
                          OFFSET -0.014 -0.0193 0.0113
                        }
                      }
                    }
                  }
                }
                JOINT rCarpal2
                {
                  OFFSET -2.0956 0.66 -0.3894
                  CHANNELS 3 Zrotation Xrotation Yrotation
                  JOINT rRing1
                  {
                    OFFSET -5.0395 -0.09 2.4971
                    CHANNELS 3 Zrotation Xrotation Yrotation
                    JOINT rRing2
                    {
                      OFFSET -3.7921 -1.552 1.4806
                      CHANNELS 3 Zrotation Xrotation Yrotation
                      JOINT rRing2_End
                      {
                        OFFSET -1.4655 -1.808 0.9609
                        CHANNELS 3 Zrotation Xrotation Yrotation
                        End Site
                        {
                          OFFSET -0.0147 -0.0181 0.0096
                        }
                      }
                    }
                  }
                  JOINT rPinky1
                  {
                    OFFSET -4.9141 -1.269 0.3592
                    CHANNELS 3 Zrotation Xrotation Yrotation
                    JOINT rPinky2
                    {
                      OFFSET -3.1477 -1.685 0.8462
                      CHANNELS 3 Zrotation Xrotation Yrotation
                      JOINT rPinky2_End
                      {
                        OFFSET -0.8055 -1.585 0.7955
                        CHANNELS 3 Zrotation Xrotation Yrotation
                        End Site
                        {
                          OFFSET -0.0081 -0.0158 0.008
                        }
                      }
                    }
                  }
                }
              }
            }
          }
        }
      }
    }
  }
  JOINT lThigh
  {
    OFFSET 8.367 -8.2066 0.5982
    CHANNELS 3 Zrotation Xrotation Yrotation
    JOINT lShin
    {
      OFFSET 2.1923 -43.463 -0.4932
      CHANNELS 3 Zrotation Xrotation Yrotation
      JOINT lFoot
      {
        OFFSET 0.7333 -45.8593 -2.6451
        CHANNELS 3 Zrotation Xrotation Yrotation
        End Site
        {
          OFFSET 2.6618 -4.2699 12.3931
        }
      }
    }
  }
  JOINT rThigh
  {
    OFFSET -8.367 -8.2066 0.5982
    CHANNELS 3 Zrotation Xrotation Yrotation
    JOINT rShin
    {
      OFFSET -2.1923 -43.463 -0.4931
      CHANNELS 3 Zrotation Xrotation Yrotation
      JOINT rFoot
      {
        OFFSET -0.7333 -45.8593 -2.6451
        CHANNELS 3 Zrotation Xrotation Yrotation
        End Site
        {
          OFFSET -2.6618 -4.2699 12.3931
        }
      }
    }
  }
}
MOTION
Frames:	4
Frame Time:	0.0333333
0 91.7903 2.51682 0 0 -0 0 0 -0 0 0 -0 0 0 -0 0 0 -0 0 0 -0 0 0 -0 1.66051 0.0835086 5.75766 -0.0175111 0.895433 15.7816 7.95139e-016 -1.98785e-016 -0 5.46658e-016 -3.97569e-016 -0 5.96354e-016 0 -0 3.97569e-016 1.98785e-016 9.54166e-015 1.49089e-016 -3.97569e-016 -0 6.4605e-016 0 3.18055e-015 5.96354e-016 0 3.18055e-015 8.94531e-016 -1.98785e-016 6.36111e-015 6.4605e-016 0 3.18055e-015 5.96354e-016 0 3.18055e-015 8.94531e-016 -1.98785e-016 6.36111e-015 1.49089e-016 -3.97569e-016 -0 6.4605e-016 0 3.18055e-015 5.96354e-016 0 3.18055e-015 8.94531e-016 -1.98785e-016 6.36111e-015 6.4605e-016 0 3.18055e-015 5.96354e-016 0 3.18055e-015 8.94531e-016 -1.98785e-016 6.36111e-015 0 0 -0 -1.4496 0.0636048 -5.0245 -1.74811 1.20616 -16.8394 -1.19271e-015 1.98785e-016 -3.18055e-015 -3.97569e-016 1.98785e-016 -3.18055e-015 -2.98177e-016 1.98785e-016 -3.18055e-015 -2.98177e-016 3.97569e-016 -0 4.96962e-016 0 -6.36111e-015 -9.93923e-017 3.97569e-016 -0 -8.94531e-016 5.96354e-016 -0 -3.97569e-016 3.97569e-016 -0 -9.93923e-017 3.97569e-016 -0 -8.94531e-016 5.96354e-016 -0 -3.97569e-016 3.97569e-016 -0 4.96962e-016 0 -6.36111e-015 -9.93923e-017 3.97569e-016 -0 -8.94531e-016 5.96354e-016 -0 -3.97569e-016 3.97569e-016 -0 -9.93923e-017 3.97569e-016 -0 -8.94531e-016 5.96354e-016 -0 -3.97569e-016 3.97569e-016 -0 -4.66111 -0.998717 0.12318 0.00986924 1.54847 0.176523 4.65186 -0.572283 -0.254274 4.66111 -0.998765 -0.123176 -0.00986867 1.54869 -0.176537 -4.65186 -0.572453 0.25427 
-3.44392 15.5027 -5.20902 0 0 -0 1.41378 1.07879 -5.30868 2.92202 2.02178 -10.6449 2.92202 2.02178 -10.6449 21.7663 -14.9142 5.86539 -0.00146053 -7.00064 -23.0033 -18.7939 2.51895 -30.632 -10.4655 3.93836 -46.1655 -16.0542 7.9523 -49.2358 6.00036 -5.93102 -24.3713 1.59028e-015 0 3.97569e-016 9.93923e-016 3.18055e-015 -3.97569e-016 3.97569e-016 0 3.97569e-016 1.98785e-016 0 -0 2.78299e-015 3.18055e-015 3.97569e-015 1.19271e-015 0 3.97569e-016 1.98785e-015 0 -3.97569e-016 2.78299e-015 3.18055e-015 3.97569e-015 1.19271e-015 0 3.97569e-016 1.98785e-015 0 -3.97569e-016 1.98785e-016 0 -0 2.78299e-015 3.18055e-015 3.97569e-015 1.19271e-015 0 3.97569e-016 1.98785e-015 0 -3.97569e-016 2.78299e-015 3.18055e-015 3.97569e-015 1.19271e-015 0 3.97569e-016 1.98785e-015 0 -3.97569e-016 -10.1439 -2.53925 25.7568 -14.1639 2.22268 -13.1581 4.23896 -9.41248 94.4293 52.5565 -57.7115 12.5331 -1.59028e-015 0 -0 -2.8249e-030 1.27222e-014 1.27222e-014 1.59028e-015 1.11319e-014 3.18055e-015 -1.59028e-015 0 -0 -2.8249e-030 1.27222e-014 1.27222e-014 1.59028e-015 1.11319e-014 3.18055e-015 -1.59028e-015 4.77083e-015 3.18055e-015 -2.8249e-030 1.27222e-014 1.27222e-014 1.59028e-015 1.11319e-014 3.18055e-015 -1.59028e-015 4.77083e-015 3.18055e-015 -1.59028e-015 0 -0 -2.8249e-030 1.27222e-014 1.27222e-014 1.59028e-015 1.11319e-014 3.18055e-015 -1.59028e-015 4.77083e-015 3.18055e-015 -2.8249e-030 1.27222e-014 1.27222e-014 1.59028e-015 1.11319e-014 3.18055e-015 -1.59028e-015 4.77083e-015 3.18055e-015 101.707 -68.1732 133.534 -41.4432 42.5951 32.4914 5.65267 28.1914 -2.64834 -176.763 -73.7355 -179.212 3.52172 49.7515 -4.54849 -7.67725 26.5727 3.4695 
-3.44392 15.5027 -5.20902 0 0 -0 1.41378 1.07879 -5.30868 2.92202 2.02178 -10.6449 2.92202 2.02178 -10.6449 21.5541 -14.897 5.85261 -0.424136 -6.97159 -22.9223 -18.7939 2.51895 -30.632 -10.4655 3.93835 -46.1655 -15.9526 7.86332 -49.4512 6.00036 -5.93102 -24.3713 6.6221e-007 -1.4228e-006 1.60648e-006 3.71087e-007 7.55091e-007 -1.58614e-007 1.39149e-015 -6.36111e-015 1.59028e-015 7.95139e-016 0 -0 6.6221e-007 -1.4228e-006 1.60648e-006 3.71087e-007 7.55091e-007 -1.58614e-007 1.78906e-015 0 7.95139e-016 6.6221e-007 -1.4228e-006 1.60648e-006 3.71087e-007 7.55091e-007 -1.58614e-007 1.78906e-015 0 7.95139e-016 7.95139e-016 0 -0 6.6221e-007 -1.4228e-006 1.60648e-006 3.71087e-007 7.55091e-007 -1.58614e-007 1.78906e-015 0 7.95139e-016 6.6221e-007 -1.4228e-006 1.60648e-006 3.71087e-007 7.55091e-007 -1.58614e-007 1.78906e-015 0 7.95139e-016 -10.1439 -2.53925 25.7568 -14.1639 2.22268 -13.1581 4.23895 -9.41248 94.4293 52.1516 -57.7913 12.6578 3.66204e-006 -9.26126e-007 -2.08161e-007 -7.87086e-007 -1.28043e-006 7.95646e-007 3.34795e-006 -2.93743e-007 -1.10328e-006 -1.59028e-015 4.77083e-015 -0 3.66204e-006 -9.26126e-007 -2.08161e-007 -7.87086e-007 -1.28043e-006 7.95646e-007 3.34795e-006 -2.93743e-007 -1.10328e-006 3.66204e-006 -9.26126e-007 -2.08161e-007 -7.87086e-007 -1.28043e-006 7.95646e-007 3.34795e-006 -2.93743e-007 -1.10328e-006 -1.59028e-015 4.77083e-015 -0 3.66204e-006 -9.26126e-007 -2.08161e-007 -7.87086e-007 -1.28043e-006 7.95646e-007 3.34795e-006 -2.93743e-007 -1.10328e-006 3.66204e-006 -9.26126e-007 -2.08161e-007 -7.87086e-007 -1.28043e-006 7.95646e-007 3.34795e-006 -2.93743e-007 -1.10328e-006 101.707 -68.1732 133.534 -41.4432 42.5951 32.4914 5.65267 28.1914 -2.64834 -176.763 -73.7355 -179.212 3.52172 49.7515 -4.54849 -7.67725 26.5727 3.4695 
-3.44392 15.5027 -5.20902 0 0 -0 1.41378 1.07879 -5.30868 2.92202 2.02178 -10.6449 2.92202 2.02178 -10.6449 21.3421 -14.8797 5.83993 -0.847192 -6.94311 -22.8411 -18.7939 2.51895 -30.632 -10.4655 3.93836 -46.1655 -15.8514 7.7739 -49.6665 6.00036 -5.93102 -24.3713 -1.39149e-015 9.54166e-015 -3.97569e-016 4.41391e-032 6.36111e-015 -3.97569e-016 -1.39149e-015 0 -0 -1.39149e-015 9.54166e-015 -3.97569e-016 3.18055e-015 6.36111e-015 3.18055e-015 -1.59028e-015 0 -3.97569e-016 -5.96354e-016 9.54166e-015 -3.97569e-016 3.18055e-015 6.36111e-015 3.18055e-015 -1.59028e-015 0 -3.97569e-016 -5.96354e-016 9.54166e-015 -3.97569e-016 -1.39149e-015 9.54166e-015 -3.97569e-016 3.18055e-015 6.36111e-015 3.18055e-015 -1.59028e-015 0 -3.97569e-016 -5.96354e-016 9.54166e-015 -3.97569e-016 3.18055e-015 6.36111e-015 3.18055e-015 -1.59028e-015 0 -3.97569e-016 -5.96354e-016 9.54166e-015 -3.97569e-016 -10.1439 -2.53925 25.7568 -14.1639 2.22268 -13.1581 4.23896 -9.41249 94.4293 51.7452 -57.8719 12.7821 -4.14107e-006 -9.73917e-007 1.9033e-006 -1.58358e-006 -2.55749e-006 1.58533e-006 -4.14107e-006 -9.73917e-007 1.9033e-006 -0 -3.18055e-015 -0 -4.14107e-006 -9.73917e-007 1.9033e-006 -1.58358e-006 -2.55749e-006 1.58533e-006 -4.14107e-006 -9.73917e-007 1.9033e-006 -4.14107e-006 -9.73917e-007 1.9033e-006 -1.58358e-006 -2.55749e-006 1.58533e-006 -4.14107e-006 -9.73917e-007 1.9033e-006 -0 -3.18055e-015 -0 -4.14107e-006 -9.73917e-007 1.9033e-006 -1.58358e-006 -2.55749e-006 1.58533e-006 -4.14107e-006 -9.73917e-007 1.9033e-006 -4.14107e-006 -9.73917e-007 1.9033e-006 -1.58358e-006 -2.55749e-006 1.58533e-006 -4.14107e-006 -9.73917e-007 1.9033e-006 101.707 -68.1732 133.534 -41.4432 42.5951 32.4914 5.65267 28.1914 -2.64834 -176.763 -73.7355 -179.212 3.52172 49.7515 -4.54849 -7.67725 26.5727 3.4695 
